# File units = meters
mtllib small_hex_bottom.mtl
g circle_bottom
v 0.125 0.25 0.125 
v -0.125 0.25 0.125 
v -0.125 0.0433013 0.125 
v 0.125 0.0433013 0.125 
v 0.125 0.25 -0.125 
v -0.125 0.25 -0.125 
v 0.125 -0.25 -0.125 
v -0.125 -0.25 -0.125 
v 0.125 -0.25 0.125 
v -0.125 -0.25 0.125 
v 0.125 -0.0433013 0.125 
v -0.125 -0.0433013 0.125 
v -0.125 0.0866025 0.05 
v 0.125 0.0866025 0.05 
v -0.125 0.0433013 -0.025 
v 0.125 0.0433013 -0.025 
v 0.125 -0.0433013 -0.025 
v 0.125 -0.0866025 0.05 
v -0.125 -0.0433013 -0.025 
v -0.125 -0.0866025 0.05 
vn 0 0 1 
vn 0 1 -2.22045e-16 
vn 0 0 -1 
vn 0 -1 4.44089e-16 
vn 0 0 1 
vn 0 -0.866025 -0.5 
vn 0 -0.866025 0.5 
vn 1 0 0 
vn -1 0 0 
vn 0 0.866025 0.5 
vn 0 -1.60247e-16 1 
vn 0 0.866025 -0.5 
usemtl 0.768627_0.886275_0.952941_0.000000_0.000000
o mesh0
f 1//1 2//1 3//1 
f 3//1 4//1 1//1 
o mesh1
f 1//2 5//2 6//2 
f 6//2 2//2 1//2 
o mesh2
f 5//3 7//3 8//3 
f 8//3 6//3 5//3 
o mesh3
f 7//4 9//4 10//4 
f 10//4 8//4 7//4 
o mesh4
f 9//5 11//5 12//5 
f 12//5 10//5 9//5 
o mesh5
f 3//6 13//6 14//6 
f 14//6 4//6 3//6 
o mesh6
f 15//7 16//7 14//7 
f 14//7 13//7 15//7 
o mesh7
f 7//8 17//8 18//8 
f 7//8 5//8 16//8 
f 16//8 17//8 7//8 
f 5//8 1//8 14//8 
f 14//8 16//8 5//8 
f 1//8 4//8 14//8 
f 18//8 9//8 7//8 
f 18//8 11//8 9//8 
o mesh8
f 6//9 15//9 13//9 
f 8//9 19//9 15//9 
f 15//9 6//9 8//9 
f 8//9 10//9 20//9 
f 20//9 19//9 8//9 
f 10//9 12//9 20//9 
f 13//9 2//9 6//9 
f 13//9 3//9 2//9 
o mesh9
f 19//10 20//10 18//10 
f 18//10 17//10 19//10 
o mesh10
f 15//11 19//11 17//11 
f 17//11 16//11 15//11 
o mesh11
f 18//12 20//12 12//12 
f 12//12 11//12 18//12 
