# File units = meters
mtllib object_cube_05_15.mtl
g cube_05_15
v 0.075 -0.025 0.145851 
v 0.075 0.025 0.145851 
v -0.075 0.025 0.145851 
v -0.075 -0.025 0.145851 
v 0.075 -0.025 0.0958508 
v -0.075 -0.025 0.0958508 
v 0.075 0.025 0.0958508 
v -0.075 0.025 0.0958508 
vn 0 0 1 
vn 0 -1 0 
vn 0 0 -1 
vn 0 1 0 
vn 1 0 0 
vn -1 0 0 
usemtl 0.972549_0.529412_0.003922_0.000000_0.000000
o mesh0
f 1//1 2//1 3//1 
f 3//1 4//1 1//1 
o mesh1
f 5//2 1//2 4//2 
f 4//2 6//2 5//2 
o mesh2
f 7//3 5//3 6//3 
f 6//3 8//3 7//3 
o mesh3
f 7//4 8//4 3//4 
f 3//4 2//4 7//4 
o mesh4
f 1//5 5//5 7//5 
f 7//5 2//5 1//5 
o mesh5
f 3//6 8//6 6//6 
f 6//6 4//6 3//6 
