# File units = meters
mtllib Part Studio 1 - cube_cubby.mtl
g cube_cubby
v 0.1 0.1 0.125 
v -0.1 0.1 0.125 
v -0.1 0.075 0.125 
v 0.1 0.075 0.125 
v 0.1 0.1 -0.125 
v -0.1 0.1 -0.125 
v 0.1 -0.1 -0.125 
v -0.1 -0.1 -0.125 
v 0.1 -0.1 0.125 
v -0.1 -0.1 0.125 
v 0.1 -0.075 0.125 
v -0.1 -0.075 0.125 
v -0.1 0.075 -0.025 
v -0.1 -0.075 -0.025 
v 0.1 -0.075 -0.025 
v 0.1 0.075 -0.025 
vn 0 0 1 
vn 0 1 -5.55112e-17 
vn 0 6.93889e-17 -1 
vn 0 -1 5.55112e-17 
vn 0 0 1 
vn -1 0 0 
vn 1 0 0 
vn 0 -2.31296e-16 1 
vn 0 -1 0 
vn 0 1 0 
usemtl 0.498039_0.498039_0.498039_0.000000_0.000000
o mesh0
f 1//1 2//1 3//1 
f 3//1 4//1 1//1 
o mesh1
f 5//2 6//2 2//2 
f 2//2 1//2 5//2 
o mesh2
f 5//3 7//3 8//3 
f 8//3 6//3 5//3 
o mesh3
f 7//4 9//4 10//4 
f 10//4 8//4 7//4 
o mesh4
f 9//5 11//5 12//5 
f 12//5 10//5 9//5 
o mesh5
f 2//6 6//6 13//6 
f 6//6 8//6 14//6 
f 14//6 13//6 6//6 
f 10//6 12//6 14//6 
f 14//6 8//6 10//6 
f 13//6 3//6 2//6 
o mesh6
f 9//7 7//7 15//7 
f 7//7 5//7 16//7 
f 16//7 15//7 7//7 
f 1//7 4//7 16//7 
f 16//7 5//7 1//7 
f 15//7 11//7 9//7 
o mesh7
f 13//8 14//8 15//8 
f 15//8 16//8 13//8 
o mesh8
f 3//9 13//9 16//9 
f 16//9 4//9 3//9 
o mesh9
f 15//10 14//10 12//10 
f 12//10 11//10 15//10 
