# File units = meters
mtllib Part Studio 1 - hex_cubby.mtl
g hex_cubby
v 0.1 -0.216819 0.155534 
v -0.1 -0.216819 0.155534 
v -0.1 -0.273517 0.155534 
v 0.1 -0.273517 0.155534 
v 0.1 -0.216819 -0.0944659 
v -0.1 -0.216819 -0.0944659 
v 0.1 -0.491819 -0.0944659 
v -0.1 -0.491819 -0.0944659 
v 0.1 -0.491819 0.155534 
v -0.1 -0.491819 0.155534 
v 0.1 -0.36012 0.155534 
v -0.1 -0.36012 0.155534 
v -0.1 -0.230216 0.0805341 
v 0.1 -0.230216 0.0805341 
v -0.1 -0.273517 0.00553415 
v 0.1 -0.273517 0.00553415 
v 0.1 -0.36012 0.00553415 
v 0.1 -0.403421 0.0805341 
v -0.1 -0.36012 0.00553415 
v -0.1 -0.403421 0.0805341 
vn 0 -2.01859e-16 1 
vn 0 1 0 
vn 0 0 -1 
vn 0 -1 0 
vn 0 -2.01859e-16 1 
vn 0 -0.866025 -0.5 
vn 0 -0.866025 0.5 
vn 1 0 0 
vn -1 0 0 
vn 0 0.866025 0.5 
vn 0 4.6071e-16 1 
vn 0 0.866025 -0.5 
usemtl 0.980392_0.713725_0.003922_0.000000_0.000000
o mesh0
f 1//1 2//1 3//1 
f 3//1 4//1 1//1 
o mesh1
f 5//2 6//2 2//2 
f 2//2 1//2 5//2 
o mesh2
f 5//3 7//3 8//3 
f 8//3 6//3 5//3 
o mesh3
f 7//4 9//4 10//4 
f 10//4 8//4 7//4 
o mesh4
f 9//5 11//5 12//5 
f 12//5 10//5 9//5 
o mesh5
f 3//6 13//6 14//6 
f 14//6 4//6 3//6 
o mesh6
f 13//7 15//7 16//7 
f 16//7 14//7 13//7 
o mesh7
f 7//8 17//8 18//8 
f 5//8 16//8 17//8 
f 17//8 7//8 5//8 
f 18//8 9//8 7//8 
f 5//8 1//8 14//8 
f 14//8 16//8 5//8 
f 1//8 4//8 14//8 
f 18//8 11//8 9//8 
o mesh8
f 6//9 8//9 19//9 
f 8//9 10//9 20//9 
f 6//9 15//9 13//9 
f 20//9 19//9 8//9 
f 19//9 15//9 6//9 
f 10//9 12//9 20//9 
f 13//9 2//9 6//9 
f 13//9 3//9 2//9 
o mesh9
f 19//10 20//10 18//10 
f 18//10 17//10 19//10 
o mesh10
f 15//11 19//11 17//11 
f 17//11 16//11 15//11 
o mesh11
f 18//12 20//12 12//12 
f 12//12 11//12 18//12 
