# File units = meters
mtllib shape_wall_one_square.mtl
g shape_wall_two_holes_thick_mf
v 0.125 -0.25 0.5 
v 0.125 0.25 0.5 
v -0.125 0.25 0.5 
v -0.125 -0.25 0.5 
v 0.125 -0.25 -0.5 
v -0.125 -0.25 -0.5 
v 0.125 0.25 -0.5 
v -0.125 0.25 -0.5 
v 0.125 0.15 -0.05 
v 0.125 -0.15 -0.05 
v 0.125 -0.15 -0.35 
v 0.125 0.15 -0.35 
v -0.125 0.15 -0.35 
v -0.125 0.15 -0.05 
v -0.125 -0.15 -0.35 
v -0.125 -0.15 -0.05 
vn 0 -1.11022e-16 1 
vn 0 -1 -4.44089e-16 
vn 0 0 -1 
vn 0 1 4.16334e-16 
vn 1 0 0 
vn -1 0 0 
vn 0 1 0 
vn 0 -1.38778e-16 -1 
vn 0 -1 0 
vn 0 0 1 
usemtl 0.647059_0.647059_0.647059_0.000000_0.000000
o mesh0
f 1//1 2//1 3//1 
f 3//1 4//1 1//1 
o mesh1
f 5//2 1//2 4//2 
f 4//2 6//2 5//2 
o mesh2
f 7//3 5//3 6//3 
f 6//3 8//3 7//3 
o mesh3
f 7//4 8//4 3//4 
f 3//4 2//4 7//4 
o mesh4
f 7//5 2//5 9//5 
f 2//5 1//5 10//5 
f 10//5 9//5 2//5 
f 5//5 11//5 10//5 
f 10//5 1//5 5//5 
f 5//5 7//5 12//5 
f 12//5 11//5 5//5 
f 9//5 12//5 7//5 
o mesh5
f 8//6 13//6 14//6 
f 8//6 6//6 15//6 
f 15//6 13//6 8//6 
f 6//6 4//6 16//6 
f 16//6 15//6 6//6 
f 4//6 3//6 14//6 
f 14//6 16//6 4//6 
f 14//6 3//6 8//6 
o mesh6
f 10//7 11//7 15//7 
f 15//7 16//7 10//7 
o mesh7
f 9//8 10//8 16//8 
f 16//8 14//8 9//8 
o mesh8
f 12//9 9//9 14//9 
f 14//9 13//9 12//9 
o mesh9
f 12//10 13//10 15//10 
f 15//10 11//10 12//10 
