# File units = meters
mtllib square_bottom.mtl
g square_bottom
v 0.125 0.25 -1.28 
v 0.125 -0.25 -1.28 
v -0.125 -0.25 -1.28 
v -0.125 0.25 -1.28 
v 0.125 0.25 -0.83 
v -0.125 0.25 -0.83 
v 0.125 0.15 -0.83 
v -0.125 0.15 -0.83 
v 0.125 0.15 -1.13 
v -0.125 0.15 -1.13 
v 0.125 -0.15 -1.13 
v -0.125 -0.15 -1.13 
v 0.125 -0.25 -0.83 
v 0.125 -0.15 -0.83 
v -0.125 -0.25 -0.83 
v -0.125 -0.15 -0.83 
vn 0 0 -1 
vn 0 1 0 
vn 0 0 1 
vn 0 -1 -9.25186e-17 
vn 1 0 0 
vn -1 0 0 
vn 0 1 1.85037e-16 
vn 0 0 1 
vn 0 -1 -1.23358e-16 
usemtl 0.917647_0.917647_0.917647_0.000000_0.000000
o mesh0
f 1//1 2//1 3//1 
f 3//1 4//1 1//1 
o mesh1
f 5//2 1//2 4//2 
f 4//2 6//2 5//2 
o mesh2
f 7//3 5//3 6//3 
f 6//3 8//3 7//3 
o mesh3
f 9//4 7//4 8//4 
f 8//4 10//4 9//4 
o mesh4
f 11//3 9//3 10//3 
f 10//3 12//3 11//3 
o mesh5
f 13//5 2//5 11//5 
f 2//5 1//5 9//5 
f 9//5 11//5 2//5 
f 5//5 7//5 9//5 
f 9//5 1//5 5//5 
f 11//5 14//5 13//5 
o mesh6
f 6//6 4//6 10//6 
f 4//6 3//6 12//6 
f 12//6 10//6 4//6 
f 15//6 16//6 12//6 
f 12//6 3//6 15//6 
f 10//6 8//6 6//6 
o mesh7
f 14//7 11//7 12//7 
f 12//7 16//7 14//7 
o mesh8
f 13//8 14//8 16//8 
f 16//8 15//8 13//8 
o mesh9
f 13//9 15//9 3//9 
f 3//9 2//9 13//9 
